<svg id="Ebene_1" data-name="Ebene 1" xmlns="http://www.w3.org/2000/svg" xmlns:xlink="http://www.w3.org/1999/xlink" viewBox="0 0 517.89 550.26"><defs><style>.cls-1{fill:url(#Unbenannter_Verlauf_30);}.cls-2{fill:url(#Unbenannter_Verlauf_57);}</style><linearGradient id="Unbenannter_Verlauf_30" x1="950.76" y1="751.75" x2="1316.96" y2="385.55" gradientUnits="userSpaceOnUse"><stop offset="0" stop-color="#ff7300"/><stop offset="1" stop-color="#e5c500"/></linearGradient><linearGradient id="Unbenannter_Verlauf_57" x1="1102.05" y1="860.06" x2="1102.23" y2="859.87" gradientUnits="userSpaceOnUse"><stop offset="0" stop-color="#ff7300"/><stop offset="0.2" stop-color="#fc7c00"/><stop offset="0.53" stop-color="#f49600"/><stop offset="0.94" stop-color="#e7bf00"/><stop offset="1" stop-color="#e5c500"/></linearGradient></defs><title>Wire_logo2</title><path class="cls-1" d="M1307.11,376.2A258.94,258.94,0,0,0,874.92,568.65c0,143,115.94,259,258.94,259s258.94-115.94,258.94-259A258.26,258.26,0,0,0,1307.11,376.2ZM1133.86,785.75c-119.89,0-217.09-97.2-217.09-217.1s97.2-217.09,217.09-217.09a216,216,0,0,1,112,31.09,20.74,20.74,0,0,0-.91,2.3,137.79,137.79,0,0,0-3.62,14.36l-47.91,210.51-29.69-109.57q-3.7-13.53-5.88-19.42A27.3,27.3,0,0,0,1150,470q-5.67-5-15.93-5c-6.75,0-12.09,1.61-16,4.79a27.61,27.61,0,0,0-8.48,11.36,177.25,177.25,0,0,0-5.88,19.14l-29.41,109.57L1059.82,542q-2.88-13.53-6.7-20.66t-14.92-7.11a18.63,18.63,0,0,0-13.54,5.34,17.63,17.63,0,0,0-5.47,13.13q0,6.16,3,17.92l21.58,85.73c1,4,2.15,8.36,3.43,13a49.83,49.83,0,0,0,4.92,12.18,21.64,21.64,0,0,0,7.87,7.94q4.85,2.79,12.38,2.8,9.3,0,14.9-4.72a26.05,26.05,0,0,0,7.87-10.67q2.25-6,6.09-19.63l32.83-120.23,32.42,120.23q4,14.08,6.15,19.91a25.1,25.1,0,0,0,7.8,10.45q5.6,4.67,14.91,4.66,9.86,0,15.25-4.79a26.75,26.75,0,0,0,7.66-11.15q2.25-6.36,5.68-20l55-228.44.15-.63A216.55,216.55,0,0,1,1351,568.65C1351,688.55,1253.76,785.75,1133.86,785.75Z" transform="translate(-874.92 -309.7)"/><path class="cls-2" d="M1102.18,860h0Z" transform="translate(-874.92 -309.7)"/></svg>