<svg id="Ebene_1" data-name="Ebene 1" xmlns="http://www.w3.org/2000/svg" xmlns:xlink="http://www.w3.org/1999/xlink" viewBox="0 0 517.89 645.17"><defs><style>.cls-1{fill:url(#Unbenannter_Verlauf_30);}.cls-2{fill:url(#Unbenannter_Verlauf_57);}.cls-3{fill:url(#Unbenannter_Verlauf_57-2);}.cls-4{fill:url(#Unbenannter_Verlauf_57-3);}.cls-5{fill:url(#Unbenannter_Verlauf_57-4);}.cls-6{fill:url(#Unbenannter_Verlauf_57-5);}</style><linearGradient id="Unbenannter_Verlauf_30" x1="950.76" y1="751.75" x2="1316.96" y2="385.55" gradientUnits="userSpaceOnUse"><stop offset="0" stop-color="#ff7300"/><stop offset="1" stop-color="#e5c500"/></linearGradient><linearGradient id="Unbenannter_Verlauf_57" x1="1102.05" y1="860.06" x2="1102.23" y2="859.87" gradientUnits="userSpaceOnUse"><stop offset="0" stop-color="#ff7300"/><stop offset="0.2" stop-color="#fc7c00"/><stop offset="0.53" stop-color="#f49600"/><stop offset="0.94" stop-color="#e7bf00"/><stop offset="1" stop-color="#e5c500"/></linearGradient><linearGradient id="Unbenannter_Verlauf_57-2" x1="1022.29" y1="950.27" x2="1119.58" y2="852.99" xlink:href="#Unbenannter_Verlauf_57"/><linearGradient id="Unbenannter_Verlauf_57-3" x1="1092.03" y1="927.84" x2="1130.92" y2="888.95" xlink:href="#Unbenannter_Verlauf_57"/><linearGradient id="Unbenannter_Verlauf_57-4" x1="1138.17" y1="939.1" x2="1190.85" y2="886.42" xlink:href="#Unbenannter_Verlauf_57"/><linearGradient id="Unbenannter_Verlauf_57-5" x1="1208.33" y1="945.32" x2="1258.21" y2="895.44" xlink:href="#Unbenannter_Verlauf_57"/></defs><title>Wire_logo</title><path class="cls-1" d="M1307.11,376.2A258.94,258.94,0,0,0,874.92,568.65c0,143,115.94,259,258.94,259s258.94-115.94,258.94-259A258.26,258.26,0,0,0,1307.11,376.2ZM1133.86,785.75c-119.89,0-217.09-97.2-217.09-217.1s97.2-217.09,217.09-217.09a216,216,0,0,1,112,31.09,20.74,20.74,0,0,0-.91,2.3,137.79,137.79,0,0,0-3.62,14.36l-47.91,210.51-29.69-109.57q-3.7-13.53-5.88-19.42A27.3,27.3,0,0,0,1150,470q-5.67-5-15.93-5c-6.75,0-12.09,1.61-16,4.79a27.61,27.61,0,0,0-8.48,11.36,177.25,177.25,0,0,0-5.88,19.14l-29.41,109.57L1059.82,542q-2.88-13.53-6.7-20.66t-14.92-7.11a18.63,18.63,0,0,0-13.54,5.34,17.63,17.63,0,0,0-5.47,13.13q0,6.16,3,17.92l21.58,85.73c1,4,2.15,8.36,3.43,13a49.83,49.83,0,0,0,4.92,12.18,21.64,21.64,0,0,0,7.87,7.94q4.85,2.79,12.38,2.8,9.3,0,14.9-4.72a26.05,26.05,0,0,0,7.87-10.67q2.25-6,6.09-19.63l32.83-120.23,32.42,120.23q4,14.08,6.15,19.91a25.1,25.1,0,0,0,7.8,10.45q5.6,4.67,14.91,4.66,9.86,0,15.25-4.79a26.75,26.75,0,0,0,7.66-11.15q2.25-6.36,5.68-20l55-228.44.15-.63A216.55,216.55,0,0,1,1351,568.65C1351,688.55,1253.76,785.75,1133.86,785.75Z" transform="translate(-874.92 -309.7)"/><path class="cls-2" d="M1102.18,860h0Z" transform="translate(-874.92 -309.7)"/><path class="cls-3" d="M1131.24,868.35a7.89,7.89,0,0,1-2.52,6.22,8.7,8.7,0,0,1-5.74,2.23h-15.66l-21.2,64.49q-1.83,5.25-2.84,7.57a11.16,11.16,0,0,1-3.19,4.17,10.62,10.62,0,0,1-12.11-.13,11.65,11.65,0,0,1-3.31-4.79q-1.08-2.85-2.34-7.39l-9.85-33.57L1043,940.73a41.74,41.74,0,0,1-4.1,10.58q-2.22,3.56-7.77,3.56a9.91,9.91,0,0,1-4.83-1.1,9.33,9.33,0,0,1-3.31-3.16,23.64,23.64,0,0,1-2.33-4.86c-.68-1.87-1.2-3.35-1.58-4.45L1009.78,915q-2.09-5.81-2.08-8a6.84,6.84,0,0,1,2.21-5,7.36,7.36,0,0,1,5.42-2.21q4.29,0,5.81,2.43a36.05,36.05,0,0,1,3.22,8.3l6.54,23.5,10.22-35.78q1.65-5.61,2.44-7.67a9.93,9.93,0,0,1,3-3.9,8.88,8.88,0,0,1,6-1.87,9,9,0,0,1,6,1.87,10.64,10.64,0,0,1,3.06,4c.59,1.45,1.41,4,2.46,7.54L1074.25,934l19-63.35q1.14-4.17,1.83-6a7.48,7.48,0,0,1,1.36-2.3l0,0c.08-.09.16-.19.25-.28l0,0c.21-.22.44-.43.68-.64a8.57,8.57,0,0,1,4.48-1.42h21a9,9,0,0,1,5.67,2.15A7.6,7.6,0,0,1,1131.24,868.35Z" transform="translate(-874.92 -309.7)"/><path class="cls-4" d="M1128.78,887.41a8.27,8.27,0,0,0-6.25-2.59,8,8,0,0,0-6.15,2.59q-2.37,2.58-2.37,7.7V944.4q0,5,2.37,7.76a7.78,7.78,0,0,0,6.15,2.71,8.17,8.17,0,0,0,6.25-2.65c1.64-1.77,2.46-4.37,2.46-7.82V894.6A10,10,0,0,0,1128.78,887.41Zm-27-27.45c-3.6.13-4.24,1.25-5,2.06.21-.22.44-.43.68-.64a8.57,8.57,0,0,1,4.48-1.42Z" transform="translate(-874.92 -309.7)"/><path class="cls-5" d="M1166.14,930v14.38q0,5.25-2.46,7.86a8.2,8.2,0,0,1-6.25,2.62,7.88,7.88,0,0,1-6.12-2.65q-2.4-2.65-2.4-7.83v-48q0-11.61,8.39-11.61c2.86,0,4.93.91,6.19,2.72s2,4.48,2.08,8a30.14,30.14,0,0,1,6.34-8,13.11,13.11,0,0,1,8.68-2.72,22.21,22.21,0,0,1,10.54,2.72q5.11,2.7,5.11,7.19a6.87,6.87,0,0,1-2.18,5.21,6.78,6.78,0,0,1-4.7,2,21.64,21.64,0,0,1-4.57-1.17,21.27,21.27,0,0,0-6.41-1.17,9.34,9.34,0,0,0-6.18,2,12.77,12.77,0,0,0-3.73,5.9,41.57,41.57,0,0,0-1.83,9.31Q1166.15,922.25,1166.14,930Z" transform="translate(-874.92 -309.7)"/><path class="cls-6" d="M1250.51,924.07h-33.7a22.75,22.75,0,0,0,2.37,10.35,15.82,15.82,0,0,0,14.55,9,20.33,20.33,0,0,0,5.64-.73,18.27,18.27,0,0,0,5-2.27,37.7,37.7,0,0,0,4.42-3.31c1.34-1.18,3.09-2.78,5.23-4.8a5.66,5.66,0,0,1,3.79-1.13,6.21,6.21,0,0,1,4.29,1.45,5.18,5.18,0,0,1,1.64,4.1,11.22,11.22,0,0,1-1.83,5.46,21.63,21.63,0,0,1-5.52,6,31.43,31.43,0,0,1-9.28,4.77,40,40,0,0,1-12.84,1.89q-16.59,0-25.81-9.47t-9.21-25.68a42.75,42.75,0,0,1,2.27-14.17,31.29,31.29,0,0,1,6.62-11.2,28.8,28.8,0,0,1,10.73-7.16A38.55,38.55,0,0,1,1233,884.7q10.1,0,17.32,4.26a28,28,0,0,1,10.82,11,28.9,28.9,0,0,1,3.6,13.75q0,6.51-3.72,8.43T1250.51,924.07Zm-33.7-9.78h31.24q-.63-8.84-4.76-13.22a14.29,14.29,0,0,0-10.89-4.38,13.79,13.79,0,0,0-10.57,4.44Q1217.69,905.59,1216.81,914.29Z" transform="translate(-874.92 -309.7)"/></svg>